<?xml version="1.0" encoding="UTF-8" standalone="no" ?>
<!DOCTYPE svg PUBLIC "-//W3C//DTD SVG 1.1//EN" "http://www.w3.org/Graphics/SVG/1.1/DTD/svg11.dtd">
<svg xmlns="http://www.w3.org/2000/svg" xmlns:xlink="http://www.w3.org/1999/xlink" version="1.1" width="111" height="27" viewBox="0 0 111 27" xml:space="preserve">
<desc>Created with Fabric.js 3.6.3</desc>
<defs>
</defs>
<g transform="matrix(1 0 0 1 56.01 14)"  >
<g style=""   >
		<g transform="matrix(1 0 0 1 17 -1.83)" style=""  >
		<text xml:space="preserve" font-family="'Open Sans', sans-serif" font-size="18" font-style="italic" font-weight="bold" style="stroke: none; stroke-width: 1; stroke-dasharray: none; stroke-linecap: butt; stroke-dashoffset: 0; stroke-linejoin: miter; stroke-miterlimit: 4; fill: rgb(0,0,0); fill-rule: nonzero; opacity: 1; white-space: pre;" ><tspan x="-38.51" y="5.65" >jgonzalb</tspan></text>
</g>
		<g transform="matrix(1 0 0 1 -41.5 0)"  >
<path style="stroke: none; stroke-width: 1; stroke-dasharray: none; stroke-linecap: butt; stroke-dashoffset: 0; stroke-linejoin: miter; stroke-miterlimit: 4; fill: rgb(255,0,0); fill-rule: nonzero; opacity: 1;"  transform=" translate(-14, -14.5)" d="M 16.5027624 18.2295082 L 17.8287293 16 L 23 24.852459 C 21.7624248 25.8579285 20.3922727 26.633877 18.8895028 27.1803279 C 17.3867328 27.7267787 15.7734893 28 14.0497238 28 C 12.988945 28 11.9723806 27.8907115 11 27.6721311 L 16.5027624 18.2295082 Z M 1 19 L 15 19 L 9.65700483 28 C 7.58292039 27.2444407 5.80193981 26.0777857 4.31400966 24.5 C 2.82607952 22.9222143 1.72142068 21.0888993 1 19 Z M 9.32317073 14.0106952 L 11 17 L 0.268292683 17 C 0.08943 16.0267331 0 15.0303081 0 14.0106952 C 0 12.0641614 0.3353625 10.2335202 1.00609756 8.51871658 C 1.67683262 6.80391299 2.59349012 5.2976892 3.75609756 4 L 9.32317073 14.0106952 Z M 27.7317073 12 C 27.91057 12.9732669 28 13.9696919 28 14.9893048 C 28 16.9358386 27.6646375 18.7548935 26.9939024 20.4465241 C 26.3231674 22.1381546 25.4065099 23.6559648 24.2439024 25 L 17 12 L 27.7317073 12 Z M 27 11 L 13 11 L 18.3429952 2 C 20.4170796 2.75555933 22.1980602 3.92221433 23.6859903 5.5 C 25.1739205 7.07778567 26.2785793 8.91110067 27 11 Z M 10.3038674 12.8688525 L 10.1712707 13 L 5 4.14754098 C 6.23757525 3.14207148 7.60772729 2.36612295 9.11049724 1.81967213 C 10.6132672 1.27322131 12.2265107 1 13.9502762 1 C 15.011055 1 16.0276194 1.10928852 17 1.32786885 L 10.3038674 12.8688525 Z" stroke-linecap="round" />
</g>
</g>
</g>
</svg>